<?xml version="1.0" encoding="UTF-8" standalone="no"?>
<!-- Created with Inkscape (http://www.inkscape.org/) -->

<svg
   width="210mm"
   height="297mm"
   viewBox="0 0 210 297"
   version="1.1"
   id="svg5"
   inkscape:version="1.1.2 (b8e25be833, 2022-02-05)"
   sodipodi:docname="background.svg"
   xmlns:inkscape="http://www.inkscape.org/namespaces/inkscape"
   xmlns:sodipodi="http://sodipodi.sourceforge.net/DTD/sodipodi-0.dtd"
   xmlns="http://www.w3.org/2000/svg"
   xmlns:svg="http://www.w3.org/2000/svg">
  <sodipodi:namedview
     id="namedview7"
     pagecolor="#505050"
     bordercolor="#eeeeee"
     borderopacity="1"
     inkscape:pageshadow="0"
     inkscape:pageopacity="0"
     inkscape:pagecheckerboard="0"
     inkscape:document-units="mm"
     showgrid="false"
     inkscape:zoom="0.7198092"
     inkscape:cx="373.01551"
     inkscape:cy="586.26647"
     inkscape:window-width="1920"
     inkscape:window-height="1001"
     inkscape:window-x="-9"
     inkscape:window-y="-9"
     inkscape:window-maximized="1"
     inkscape:current-layer="layer1" />
  <defs
     id="defs2">
    <inkscape:path-effect
       effect="skeletal"
       id="path-effect1877"
       is_visible="true"
       lpeversion="1"
       pattern="M 0,4.9921382 C 0,2.2364779 2.2364779,0 4.9921382,0 c 2.7556604,0 4.9921383,2.2364779 4.9921383,4.9921382 0,2.7556604 -2.2364779,4.9921383 -4.9921383,4.9921383 C 2.2364779,9.9842765 0,7.7477986 0,4.9921382 Z"
       copytype="single_stretched"
       prop_scale="1"
       scale_y_rel="false"
       spacing="0"
       normal_offset="0"
       tang_offset="0"
       prop_units="false"
       vertical_pattern="false"
       hide_knot="false"
       fuse_tolerance="0" />
    <inkscape:path-effect
       effect="skeletal"
       id="path-effect1871"
       is_visible="true"
       lpeversion="1"
       pattern="M 0,4.9921382 C 0,2.2364779 2.2364779,0 4.9921382,0 c 2.7556604,0 4.9921383,2.2364779 4.9921383,4.9921382 0,2.7556604 -2.2364779,4.9921383 -4.9921383,4.9921383 C 2.2364779,9.9842765 0,7.7477986 0,4.9921382 Z"
       copytype="single_stretched"
       prop_scale="1"
       scale_y_rel="false"
       spacing="0"
       normal_offset="0"
       tang_offset="0"
       prop_units="false"
       vertical_pattern="false"
       hide_knot="false"
       fuse_tolerance="0" />
    <inkscape:path-effect
       effect="skeletal"
       id="path-effect1865"
       is_visible="true"
       lpeversion="1"
       pattern="M 0,4.9921382 C 0,2.2364779 2.2364779,0 4.9921382,0 c 2.7556604,0 4.9921383,2.2364779 4.9921383,4.9921382 0,2.7556604 -2.2364779,4.9921383 -4.9921383,4.9921383 C 2.2364779,9.9842765 0,7.7477986 0,4.9921382 Z"
       copytype="single_stretched"
       prop_scale="1"
       scale_y_rel="false"
       spacing="0"
       normal_offset="0"
       tang_offset="0"
       prop_units="false"
       vertical_pattern="false"
       hide_knot="false"
       fuse_tolerance="0" />
    <inkscape:path-effect
       effect="powerstroke"
       id="path-effect1859"
       is_visible="true"
       lpeversion="1"
       offset_points="0,4.99214"
       not_jump="false"
       sort_points="true"
       interpolator_type="CubicBezierJohan"
       interpolator_beta="0.2"
       start_linecap_type="zerowidth"
       linejoin_type="extrp_arc"
       miter_limit="4"
       scale_width="1"
       end_linecap_type="zerowidth" />
    <inkscape:path-effect
       effect="powerstroke"
       id="path-effect1853"
       is_visible="true"
       lpeversion="1"
       offset_points="0,4.99214"
       not_jump="false"
       sort_points="true"
       interpolator_type="CubicBezierJohan"
       interpolator_beta="0.2"
       start_linecap_type="zerowidth"
       linejoin_type="extrp_arc"
       miter_limit="4"
       scale_width="1"
       end_linecap_type="zerowidth" />
    <inkscape:path-effect
       effect="powerstroke"
       id="path-effect1847"
       is_visible="true"
       lpeversion="1"
       offset_points="0,4.99214"
       not_jump="false"
       sort_points="true"
       interpolator_type="CubicBezierJohan"
       interpolator_beta="0.2"
       start_linecap_type="zerowidth"
       linejoin_type="extrp_arc"
       miter_limit="4"
       scale_width="1"
       end_linecap_type="zerowidth" />
    <inkscape:path-effect
       effect="powerstroke"
       id="path-effect1841"
       is_visible="true"
       lpeversion="1"
       offset_points="0,4.99214"
       not_jump="false"
       sort_points="true"
       interpolator_type="CubicBezierJohan"
       interpolator_beta="0.2"
       start_linecap_type="zerowidth"
       linejoin_type="extrp_arc"
       miter_limit="4"
       scale_width="1"
       end_linecap_type="zerowidth" />
    <filter
       inkscape:collect="always"
       style="color-interpolation-filters:sRGB"
       id="filter6888"
       x="-0.12643371"
       y="-0.12643371"
       width="1.2528674"
       height="1.2528674">
      <feGaussianBlur
         inkscape:collect="always"
         stdDeviation="0.71647069"
         id="feGaussianBlur6890" />
    </filter>
    <filter
       inkscape:collect="always"
       style="color-interpolation-filters:sRGB"
       id="filter6892"
       x="-0.12643371"
       y="-0.12643371"
       width="1.2528674"
       height="1.2528674">
      <feGaussianBlur
         inkscape:collect="always"
         stdDeviation="0.71647069"
         id="feGaussianBlur6894" />
    </filter>
    <filter
       inkscape:collect="always"
       style="color-interpolation-filters:sRGB"
       id="filter6896"
       x="-0.12643371"
       y="-0.12643371"
       width="1.2528674"
       height="1.2528674">
      <feGaussianBlur
         inkscape:collect="always"
         stdDeviation="0.71647069"
         id="feGaussianBlur6898" />
    </filter>
    <filter
       inkscape:collect="always"
       style="color-interpolation-filters:sRGB"
       id="filter6900"
       x="-0.12643371"
       y="-0.12643371"
       width="1.2528674"
       height="1.2528674">
      <feGaussianBlur
         inkscape:collect="always"
         stdDeviation="0.71647069"
         id="feGaussianBlur6902" />
    </filter>
    <filter
       inkscape:collect="always"
       style="color-interpolation-filters:sRGB"
       id="filter6904"
       x="-0.12643371"
       y="-0.12643371"
       width="1.2528674"
       height="1.2528674">
      <feGaussianBlur
         inkscape:collect="always"
         stdDeviation="0.71647069"
         id="feGaussianBlur6906" />
    </filter>
    <filter
       inkscape:collect="always"
       style="color-interpolation-filters:sRGB"
       id="filter6908"
       x="-0.12643371"
       y="-0.12643371"
       width="1.2528674"
       height="1.2528674">
      <feGaussianBlur
         inkscape:collect="always"
         stdDeviation="0.71647069"
         id="feGaussianBlur6910" />
    </filter>
    <filter
       inkscape:collect="always"
       style="color-interpolation-filters:sRGB"
       id="filter6912"
       x="-0.12643371"
       y="-0.12643371"
       width="1.2528674"
       height="1.2528674">
      <feGaussianBlur
         inkscape:collect="always"
         stdDeviation="0.71647069"
         id="feGaussianBlur6914" />
    </filter>
    <filter
       inkscape:collect="always"
       style="color-interpolation-filters:sRGB"
       id="filter6916"
       x="-0.12643371"
       y="-0.12643371"
       width="1.2528674"
       height="1.2528674">
      <feGaussianBlur
         inkscape:collect="always"
         stdDeviation="0.71647069"
         id="feGaussianBlur6918" />
    </filter>
    <filter
       inkscape:collect="always"
       style="color-interpolation-filters:sRGB"
       id="filter6920"
       x="-0.12643371"
       y="-0.12643371"
       width="1.2528674"
       height="1.2528674">
      <feGaussianBlur
         inkscape:collect="always"
         stdDeviation="0.71647069"
         id="feGaussianBlur6922" />
    </filter>
    <filter
       inkscape:collect="always"
       style="color-interpolation-filters:sRGB"
       id="filter6924"
       x="-0.12643371"
       y="-0.12643371"
       width="1.2528674"
       height="1.2528674">
      <feGaussianBlur
         inkscape:collect="always"
         stdDeviation="0.71647069"
         id="feGaussianBlur6926" />
    </filter>
    <filter
       inkscape:collect="always"
       style="color-interpolation-filters:sRGB"
       id="filter6928"
       x="-0.12643371"
       y="-0.12643371"
       width="1.2528674"
       height="1.2528674">
      <feGaussianBlur
         inkscape:collect="always"
         stdDeviation="0.71647069"
         id="feGaussianBlur6930" />
    </filter>
    <filter
       inkscape:collect="always"
       style="color-interpolation-filters:sRGB"
       id="filter6932"
       x="-0.12643371"
       y="-0.12643371"
       width="1.2528674"
       height="1.2528674">
      <feGaussianBlur
         inkscape:collect="always"
         stdDeviation="0.71647069"
         id="feGaussianBlur6934" />
    </filter>
    <filter
       inkscape:collect="always"
       style="color-interpolation-filters:sRGB"
       id="filter6936"
       x="-0.12643371"
       y="-0.12643371"
       width="1.2528674"
       height="1.2528674">
      <feGaussianBlur
         inkscape:collect="always"
         stdDeviation="0.71647069"
         id="feGaussianBlur6938" />
    </filter>
    <filter
       inkscape:collect="always"
       style="color-interpolation-filters:sRGB"
       id="filter6940"
       x="-0.12643371"
       y="-0.12643371"
       width="1.2528674"
       height="1.2528674">
      <feGaussianBlur
         inkscape:collect="always"
         stdDeviation="0.71647069"
         id="feGaussianBlur6942" />
    </filter>
    <filter
       inkscape:collect="always"
       style="color-interpolation-filters:sRGB"
       id="filter6944"
       x="-0.12643371"
       y="-0.12643371"
       width="1.2528674"
       height="1.2528674">
      <feGaussianBlur
         inkscape:collect="always"
         stdDeviation="0.71647069"
         id="feGaussianBlur6946" />
    </filter>
    <filter
       inkscape:collect="always"
       style="color-interpolation-filters:sRGB"
       id="filter6948"
       x="-0.12643371"
       y="-0.12643371"
       width="1.2528674"
       height="1.2528674">
      <feGaussianBlur
         inkscape:collect="always"
         stdDeviation="0.71647069"
         id="feGaussianBlur6950" />
    </filter>
    <filter
       inkscape:collect="always"
       style="color-interpolation-filters:sRGB"
       id="filter6952"
       x="-0.12643371"
       y="-0.12643371"
       width="1.2528674"
       height="1.2528674">
      <feGaussianBlur
         inkscape:collect="always"
         stdDeviation="0.71647069"
         id="feGaussianBlur6954" />
    </filter>
    <filter
       inkscape:collect="always"
       style="color-interpolation-filters:sRGB"
       id="filter6956"
       x="-0.12643371"
       y="-0.12643371"
       width="1.2528674"
       height="1.2528674">
      <feGaussianBlur
         inkscape:collect="always"
         stdDeviation="0.71647069"
         id="feGaussianBlur6958" />
    </filter>
    <filter
       inkscape:collect="always"
       style="color-interpolation-filters:sRGB"
       id="filter6960"
       x="-0.12643371"
       y="-0.12643371"
       width="1.2528674"
       height="1.2528674">
      <feGaussianBlur
         inkscape:collect="always"
         stdDeviation="0.71647069"
         id="feGaussianBlur6962" />
    </filter>
    <filter
       inkscape:collect="always"
       style="color-interpolation-filters:sRGB"
       id="filter6964"
       x="-0.12643371"
       y="-0.12643371"
       width="1.2528674"
       height="1.2528674">
      <feGaussianBlur
         inkscape:collect="always"
         stdDeviation="0.71647069"
         id="feGaussianBlur6966" />
    </filter>
    <filter
       inkscape:collect="always"
       style="color-interpolation-filters:sRGB"
       id="filter6968"
       x="-0.12643371"
       y="-0.12643371"
       width="1.2528674"
       height="1.2528674">
      <feGaussianBlur
         inkscape:collect="always"
         stdDeviation="0.71647069"
         id="feGaussianBlur6970" />
    </filter>
    <filter
       inkscape:collect="always"
       style="color-interpolation-filters:sRGB"
       id="filter6972"
       x="-0.12643371"
       y="-0.12643371"
       width="1.2528674"
       height="1.2528674">
      <feGaussianBlur
         inkscape:collect="always"
         stdDeviation="0.71647069"
         id="feGaussianBlur6974" />
    </filter>
    <filter
       inkscape:collect="always"
       style="color-interpolation-filters:sRGB"
       id="filter6976"
       x="-0.12643371"
       y="-0.12643371"
       width="1.2528674"
       height="1.2528674">
      <feGaussianBlur
         inkscape:collect="always"
         stdDeviation="0.71647069"
         id="feGaussianBlur6978" />
    </filter>
    <filter
       inkscape:collect="always"
       style="color-interpolation-filters:sRGB"
       id="filter6980"
       x="-0.12643371"
       y="-0.12643371"
       width="1.2528674"
       height="1.2528674">
      <feGaussianBlur
         inkscape:collect="always"
         stdDeviation="0.71647069"
         id="feGaussianBlur6982" />
    </filter>
    <filter
       inkscape:collect="always"
       style="color-interpolation-filters:sRGB"
       id="filter6984"
       x="-0.12643371"
       y="-0.12643371"
       width="1.2528674"
       height="1.2528674">
      <feGaussianBlur
         inkscape:collect="always"
         stdDeviation="0.71647069"
         id="feGaussianBlur6986" />
    </filter>
    <filter
       inkscape:collect="always"
       style="color-interpolation-filters:sRGB"
       id="filter6988"
       x="-0.12643371"
       y="-0.12643371"
       width="1.2528674"
       height="1.2528674">
      <feGaussianBlur
         inkscape:collect="always"
         stdDeviation="0.71647069"
         id="feGaussianBlur6990" />
    </filter>
    <filter
       inkscape:collect="always"
       style="color-interpolation-filters:sRGB"
       id="filter6992"
       x="-0.12643371"
       y="-0.12643371"
       width="1.2528674"
       height="1.2528674">
      <feGaussianBlur
         inkscape:collect="always"
         stdDeviation="0.71647069"
         id="feGaussianBlur6994" />
    </filter>
    <filter
       inkscape:collect="always"
       style="color-interpolation-filters:sRGB"
       id="filter6996"
       x="-0.12643371"
       y="-0.12643371"
       width="1.2528674"
       height="1.2528674">
      <feGaussianBlur
         inkscape:collect="always"
         stdDeviation="0.71647069"
         id="feGaussianBlur6998" />
    </filter>
    <filter
       inkscape:collect="always"
       style="color-interpolation-filters:sRGB"
       id="filter7000"
       x="-0.14618897"
       y="-0.14618897"
       width="1.2923779"
       height="1.2923779">
      <feGaussianBlur
         inkscape:collect="always"
         stdDeviation="0.71647069"
         id="feGaussianBlur7002" />
    </filter>
    <filter
       inkscape:collect="always"
       style="color-interpolation-filters:sRGB"
       id="filter7004"
       x="-0.14618897"
       y="-0.14618897"
       width="1.2923779"
       height="1.2923779">
      <feGaussianBlur
         inkscape:collect="always"
         stdDeviation="0.71647069"
         id="feGaussianBlur7006" />
    </filter>
    <filter
       inkscape:collect="always"
       style="color-interpolation-filters:sRGB"
       id="filter7008"
       x="-0.1569943"
       y="-0.13612733"
       width="1.3139886"
       height="1.2722547">
      <feGaussianBlur
         inkscape:collect="always"
         stdDeviation="0.76942752"
         id="feGaussianBlur7010" />
    </filter>
    <filter
       inkscape:collect="always"
       style="color-interpolation-filters:sRGB"
       id="filter7012"
       x="-0.15931384"
       y="-0.13414539"
       width="1.3186277"
       height="1.2682908">
      <feGaussianBlur
         inkscape:collect="always"
         stdDeviation="0.75899969"
         id="feGaussianBlur7014" />
    </filter>
    <filter
       inkscape:collect="always"
       style="color-interpolation-filters:sRGB"
       id="filter7016"
       x="-0.14618897"
       y="-0.14618897"
       width="1.2923779"
       height="1.2923779">
      <feGaussianBlur
         inkscape:collect="always"
         stdDeviation="0.71647069"
         id="feGaussianBlur7018" />
    </filter>
    <filter
       inkscape:collect="always"
       style="color-interpolation-filters:sRGB"
       id="filter7020"
       x="-0.14618897"
       y="-0.14618897"
       width="1.2923779"
       height="1.2923779">
      <feGaussianBlur
         inkscape:collect="always"
         stdDeviation="0.71647069"
         id="feGaussianBlur7022" />
    </filter>
    <filter
       inkscape:collect="always"
       style="color-interpolation-filters:sRGB"
       id="filter7024"
       x="-0.14194707"
       y="-0.1505576"
       width="1.2838941"
       height="1.3011152">
      <feGaussianBlur
         inkscape:collect="always"
         stdDeviation="0.73788139"
         id="feGaussianBlur7026" />
    </filter>
    <filter
       inkscape:collect="always"
       style="color-interpolation-filters:sRGB"
       id="filter7028"
       x="-0.16727846"
       y="-0.1277583"
       width="1.3345569"
       height="1.2555166">
      <feGaussianBlur
         inkscape:collect="always"
         stdDeviation="0.74070818"
         id="feGaussianBlur7030" />
    </filter>
    <filter
       inkscape:collect="always"
       style="color-interpolation-filters:sRGB"
       id="filter7032"
       x="-0.14618897"
       y="-0.14618897"
       width="1.2923779"
       height="1.2923779">
      <feGaussianBlur
         inkscape:collect="always"
         stdDeviation="0.71647069"
         id="feGaussianBlur7034" />
    </filter>
    <filter
       inkscape:collect="always"
       style="color-interpolation-filters:sRGB"
       id="filter7036"
       x="-0.1541516"
       y="-0.13863764"
       width="1.3083032"
       height="1.2772753">
      <feGaussianBlur
         inkscape:collect="always"
         stdDeviation="0.75549547"
         id="feGaussianBlur7038" />
    </filter>
    <filter
       inkscape:collect="always"
       style="color-interpolation-filters:sRGB"
       id="filter7040"
       x="-0.14618897"
       y="-0.14618897"
       width="1.2923779"
       height="1.2923779">
      <feGaussianBlur
         inkscape:collect="always"
         stdDeviation="0.71647069"
         id="feGaussianBlur7042" />
    </filter>
    <filter
       inkscape:collect="always"
       style="color-interpolation-filters:sRGB"
       id="filter7044"
       x="-0.14618897"
       y="-0.14618897"
       width="1.2923779"
       height="1.2923779">
      <feGaussianBlur
         inkscape:collect="always"
         stdDeviation="0.71647069"
         id="feGaussianBlur7046" />
    </filter>
    <filter
       inkscape:collect="always"
       style="color-interpolation-filters:sRGB"
       id="filter7048"
       x="-0.14618897"
       y="-0.14618897"
       width="1.2923779"
       height="1.2923779">
      <feGaussianBlur
         inkscape:collect="always"
         stdDeviation="0.71647069"
         id="feGaussianBlur7050" />
    </filter>
    <filter
       inkscape:collect="always"
       style="color-interpolation-filters:sRGB"
       id="filter7052"
       x="-0.13346433"
       y="-0.16012678"
       width="1.2669287"
       height="1.3202536">
      <feGaussianBlur
         inkscape:collect="always"
         stdDeviation="0.78477978"
         id="feGaussianBlur7054" />
    </filter>
    <filter
       inkscape:collect="always"
       style="color-interpolation-filters:sRGB"
       id="filter7056"
       x="-0.13964385"
       y="-0.15304085"
       width="1.2792877"
       height="1.3060817">
      <feGaussianBlur
         inkscape:collect="always"
         stdDeviation="0.76760313"
         id="feGaussianBlur7058" />
    </filter>
    <filter
       inkscape:collect="always"
       style="color-interpolation-filters:sRGB"
       id="filter7060"
       x="-0.14618897"
       y="-0.14618897"
       width="1.2923779"
       height="1.2923779">
      <feGaussianBlur
         inkscape:collect="always"
         stdDeviation="0.71647069"
         id="feGaussianBlur7062" />
    </filter>
    <filter
       inkscape:collect="always"
       style="color-interpolation-filters:sRGB"
       id="filter7064"
       x="-0.14618897"
       y="-0.14618897"
       width="1.2923779"
       height="1.2923779">
      <feGaussianBlur
         inkscape:collect="always"
         stdDeviation="0.71647069"
         id="feGaussianBlur7066" />
    </filter>
    <filter
       inkscape:collect="always"
       style="color-interpolation-filters:sRGB"
       id="filter7068"
       x="-0.14618897"
       y="-0.14618897"
       width="1.2923779"
       height="1.2923779">
      <feGaussianBlur
         inkscape:collect="always"
         stdDeviation="0.71647069"
         id="feGaussianBlur7070" />
    </filter>
    <filter
       inkscape:collect="always"
       style="color-interpolation-filters:sRGB"
       id="filter7072"
       x="-0.13863764"
       y="-0.1541516"
       width="1.2772753"
       height="1.3083032">
      <feGaussianBlur
         inkscape:collect="always"
         stdDeviation="0.75549547"
         id="feGaussianBlur7074" />
    </filter>
    <filter
       inkscape:collect="always"
       style="color-interpolation-filters:sRGB"
       id="filter7076"
       x="-0.14618897"
       y="-0.14618897"
       width="1.2923779"
       height="1.2923779">
      <feGaussianBlur
         inkscape:collect="always"
         stdDeviation="0.71647069"
         id="feGaussianBlur7078" />
    </filter>
    <filter
       inkscape:collect="always"
       style="color-interpolation-filters:sRGB"
       id="filter7080"
       x="-0.072159825"
       y="-0.079636484"
       width="1.1443206"
       height="1.1592717">
      <feGaussianBlur
         inkscape:collect="always"
         stdDeviation="2.7079207"
         id="feGaussianBlur7082" />
    </filter>
    <filter
       inkscape:collect="always"
       style="color-interpolation-filters:sRGB"
       id="filter7084"
       x="-0.063715024"
       y="-0.0600323"
       width="1.1274282"
       height="1.1195165">
      <feGaussianBlur
         inkscape:collect="always"
         stdDeviation="2.7079207"
         id="feGaussianBlur7086" />
    </filter>
    <filter
       inkscape:collect="always"
       style="color-interpolation-filters:sRGB"
       id="filter7088"
       x="-0.085699679"
       y="-0.077947513"
       width="1.1713991"
       height="1.155892">
      <feGaussianBlur
         inkscape:collect="always"
         stdDeviation="2.7079207"
         id="feGaussianBlur7090" />
    </filter>
    <filter
       inkscape:collect="always"
       style="color-interpolation-filters:sRGB"
       id="filter7092"
       x="-0.064402426"
       y="-0.059179465"
       width="1.1288033"
       height="1.1181787">
      <feGaussianBlur
         inkscape:collect="always"
         stdDeviation="2.7079207"
         id="feGaussianBlur7094" />
    </filter>
    <filter
       inkscape:collect="always"
       style="color-interpolation-filters:sRGB"
       id="filter7096"
       x="-0.065676386"
       y="-0.062281887"
       width="1.1313509"
       height="1.1238919">
      <feGaussianBlur
         inkscape:collect="always"
         stdDeviation="2.7079207"
         id="feGaussianBlur7098" />
    </filter>
    <filter
       inkscape:collect="always"
       style="color-interpolation-filters:sRGB"
       id="filter7100"
       x="-0.057686717"
       y="-0.05997082"
       width="1.1153722"
       height="1.1168449">
      <feGaussianBlur
         inkscape:collect="always"
         stdDeviation="2.7079207"
         id="feGaussianBlur7102" />
    </filter>
    <filter
       inkscape:collect="always"
       style="color-interpolation-filters:sRGB"
       id="filter7104"
       x="-0.051877913"
       y="-0.051320364"
       width="1.1037544"
       height="1.1013811">
      <feGaussianBlur
         inkscape:collect="always"
         stdDeviation="2.7079207"
         id="feGaussianBlur7106" />
    </filter>
    <filter
       inkscape:collect="always"
       style="color-interpolation-filters:sRGB"
       id="filter7108"
       x="-0.025302462"
       y="-0.027286631"
       width="1.0506049"
       height="1.0545733">
      <feGaussianBlur
         inkscape:collect="always"
         stdDeviation="2.7079207"
         id="feGaussianBlur7110" />
    </filter>
    <filter
       inkscape:collect="always"
       style="color-interpolation-filters:sRGB"
       id="filter7112"
       x="-0.025262414"
       y="-0.027639277"
       width="1.0505247"
       height="1.0535112">
      <feGaussianBlur
         inkscape:collect="always"
         stdDeviation="2.7079207"
         id="feGaussianBlur7114" />
    </filter>
    <filter
       inkscape:collect="always"
       style="color-interpolation-filters:sRGB"
       id="filter7116"
       x="-0.020089722"
       y="-0.02101194"
       width="1.0401791"
       height="1.0409866">
      <feGaussianBlur
         inkscape:collect="always"
         stdDeviation="2.7079207"
         id="feGaussianBlur7118" />
    </filter>
  </defs>
  <g
     inkscape:label="Layer 1"
     inkscape:groupmode="layer"
     id="layer1">
    <circle
       style="fill:#362d5e;fill-rule:evenodd;stroke-width:0.264583;fill-opacity:1;filter:url(#filter6888)"
       id="path303"
       cx="31.795172"
       cy="32.530323"
       r="6.8001237" />
    <circle
       style="fill:#362d5e;fill-rule:evenodd;stroke-width:0.264583;fill-opacity:1;filter:url(#filter6892)"
       id="path303-9"
       cx="49.254948"
       cy="51.460396"
       r="6.8001237" />
    <circle
       style="fill:#362d5e;fill-rule:evenodd;stroke-width:0.264583;fill-opacity:1;filter:url(#filter6896)"
       id="path303-8"
       cx="30.508665"
       cy="99.245049"
       r="6.8001237" />
    <circle
       style="fill:#362d5e;fill-rule:evenodd;stroke-width:0.264583;fill-opacity:1;filter:url(#filter6900)"
       id="path303-5"
       cx="141.88367"
       cy="85.644798"
       r="6.8001237" />
    <circle
       style="fill:#362d5e;fill-rule:evenodd;stroke-width:0.264583;fill-opacity:1;filter:url(#filter6904)"
       id="path303-7"
       cx="86.74752"
       cy="77.558167"
       r="6.8001237" />
    <circle
       style="fill:#362d5e;fill-rule:evenodd;stroke-width:0.264583;fill-opacity:1;filter:url(#filter6908)"
       id="path303-4"
       cx="115.05074"
       cy="41.903461"
       r="6.8001237" />
    <circle
       style="fill:#362d5e;fill-rule:evenodd;stroke-width:0.264583;fill-opacity:1;filter:url(#filter6912)"
       id="path303-6"
       cx="166.14357"
       cy="43.006195"
       r="6.8001237" />
    <circle
       style="fill:#362d5e;fill-rule:evenodd;stroke-width:0.264583;fill-opacity:1;filter:url(#filter6916)"
       id="path303-3"
       cx="106.22897"
       cy="113.21287"
       r="6.8001237" />
    <circle
       style="fill:#362d5e;fill-rule:evenodd;stroke-width:0.264583;fill-opacity:1;filter:url(#filter6920)"
       id="path303-1"
       cx="61.384899"
       cy="101.08292"
       r="6.8001237" />
    <circle
       style="fill:#362d5e;fill-rule:evenodd;stroke-width:0.264583;fill-opacity:1;filter:url(#filter6924)"
       id="path303-72"
       cx="47.784653"
       cy="128.28342"
       r="6.8001237" />
    <circle
       style="fill:#362d5e;fill-rule:evenodd;stroke-width:0.264583;fill-opacity:1;filter:url(#filter6928)"
       id="path303-9-1"
       cx="150.52165"
       cy="124.05631"
       r="6.8001237" />
    <circle
       style="fill:#362d5e;fill-rule:evenodd;stroke-width:0.264583;fill-opacity:1;filter:url(#filter6932)"
       id="path303-8-7"
       cx="131.77538"
       cy="171.84097"
       r="6.8001237" />
    <circle
       style="fill:#362d5e;fill-rule:evenodd;stroke-width:0.264583;fill-opacity:1;filter:url(#filter6936)"
       id="path303-5-6"
       cx="173.67883"
       cy="265.93997"
       r="6.8001237" />
    <circle
       style="fill:#362d5e;fill-rule:evenodd;stroke-width:0.264583;fill-opacity:1;filter:url(#filter6940)"
       id="path303-7-7"
       cx="165.59221"
       cy="166.32735"
       r="6.8001237" />
    <circle
       style="fill:#362d5e;fill-rule:evenodd;stroke-width:0.264583;fill-opacity:1;filter:url(#filter6944)"
       id="path303-4-8"
       cx="69.287758"
       cy="157.87314"
       r="6.8001237" />
    <circle
       style="fill:#362d5e;fill-rule:evenodd;stroke-width:0.264583;fill-opacity:1;filter:url(#filter6948)"
       id="path303-6-1"
       cx="150.52165"
       cy="232.49074"
       r="6.8001237" />
    <circle
       style="fill:#362d5e;fill-rule:evenodd;stroke-width:0.264583;fill-opacity:1;filter:url(#filter6952)"
       id="path303-3-1"
       cx="67.817467"
       cy="269.61572"
       r="6.8001237" />
    <circle
       style="fill:#362d5e;fill-rule:evenodd;stroke-width:0.264583;fill-opacity:1;filter:url(#filter6956)"
       id="path303-1-4"
       cx="134.34839"
       cy="259.32364"
       r="6.8001237" />
    <circle
       style="fill:#362d5e;fill-rule:evenodd;stroke-width:0.264583;fill-opacity:1;filter:url(#filter6960)"
       id="path303-9-5"
       cx="35.838486"
       cy="183.60335"
       r="6.8001237" />
    <circle
       style="fill:#362d5e;fill-rule:evenodd;stroke-width:0.264583;fill-opacity:1;filter:url(#filter6964)"
       id="path303-8-4"
       cx="17.092203"
       cy="231.388"
       r="6.8001237" />
    <circle
       style="fill:#362d5e;fill-rule:evenodd;stroke-width:0.264583;fill-opacity:1;filter:url(#filter6968)"
       id="path303-5-2"
       cx="71.125618"
       cy="189.48453"
       r="6.8001237" />
    <circle
       style="fill:#362d5e;fill-rule:evenodd;stroke-width:0.264583;fill-opacity:1;filter:url(#filter6972)"
       id="path303-7-1"
       cx="50.909031"
       cy="225.87437"
       r="6.8001237" />
    <circle
       style="fill:#362d5e;fill-rule:evenodd;stroke-width:0.264583;fill-opacity:1;filter:url(#filter6976)"
       id="path303-4-1"
       cx="101.63428"
       cy="174.04642"
       r="6.8001237" />
    <circle
       style="fill:#362d5e;fill-rule:evenodd;stroke-width:0.264583;fill-opacity:1;filter:url(#filter6980)"
       id="path303-6-6"
       cx="127.73206"
       cy="220.36078"
       r="6.8001237" />
    <circle
       style="fill:#362d5e;fill-rule:evenodd;stroke-width:0.264583;fill-opacity:1;filter:url(#filter6984)"
       id="path303-3-0"
       cx="92.812515"
       cy="245.35582"
       r="6.8001237" />
    <circle
       style="fill:#362d5e;fill-rule:evenodd;stroke-width:0.264583;fill-opacity:1;filter:url(#filter6988)"
       id="path303-1-5"
       cx="95.385521"
       cy="211.17142"
       r="6.8001237" />
    <circle
       style="fill:#362d5e;fill-rule:evenodd;stroke-width:0.264583;fill-opacity:1;filter:url(#filter6992)"
       id="path303-72-6"
       cx="34.368191"
       cy="260.42636"
       r="6.8001237" />
    <circle
       style="fill:#362d5e;fill-rule:evenodd;stroke-width:0.264583;fill-opacity:1;filter:url(#filter6996)"
       id="path303-72-1"
       cx="149.05136"
       cy="200.87933"
       r="6.8001237" />
    <rect
       style="fill:#362d5e;fill-rule:evenodd;stroke-width:0.264583;fill-opacity:1;filter:url(#filter7000)"
       id="rect662"
       width="11.762377"
       height="11.762377"
       x="170.37067"
       y="65.703896" />
    <rect
       style="fill:#362d5e;fill-rule:evenodd;stroke-width:0.264583;fill-opacity:1;filter:url(#filter7004)"
       id="rect662-3"
       width="11.762377"
       height="11.762377"
       x="118.79175"
       y="-74.54171"
       transform="rotate(53.819349)" />
    <rect
       style="fill:#362d5e;fill-rule:evenodd;stroke-width:0.284139;fill-opacity:1;filter:url(#filter7008)"
       id="rect662-2"
       width="11.762377"
       height="13.565433"
       x="156.02841"
       y="93.368324"
       transform="matrix(1,0,-0.49816107,0.86708451,0,0)" />
    <rect
       style="fill:#362d5e;fill-rule:evenodd;stroke-width:0.280288;fill-opacity:1;filter:url(#filter7012)"
       id="rect662-2-4"
       width="11.434031"
       height="13.579291"
       x="150.57106"
       y="70.3069"
       transform="matrix(0.97945474,0.20166413,0.26483626,0.9642934,0,0)" />
    <rect
       style="fill:#362d5e;fill-rule:evenodd;stroke-width:0.264583;fill-opacity:1;filter:url(#filter7016)"
       id="rect662-2-9"
       width="11.762377"
       height="11.762377"
       x="146.56979"
       y="95.107422"
       transform="rotate(16.37032)" />
    <rect
       style="fill:#362d5e;fill-rule:evenodd;stroke-width:0.264583;fill-opacity:1;filter:url(#filter7020)"
       id="rect662-2-0"
       width="11.762377"
       height="11.762377"
       x="176.25186"
       y="134.34839" />
    <rect
       style="fill:#362d5e;fill-rule:evenodd;stroke-width:0.27249;fill-opacity:1;filter:url(#filter7024)"
       id="rect662-2-07"
       width="12.475884"
       height="11.762377"
       x="100.28764"
       y="274.14948"
       transform="matrix(0.74772329,-0.66401046,0.37679398,0.92629709,0,0)" />
    <rect
       style="fill:#362d5e;fill-rule:evenodd;stroke-width:0.273534;fill-opacity:1;filter:url(#filter7028)"
       id="rect662-2-5"
       width="10.627188"
       height="13.914553"
       x="42.217049"
       y="198.6356"
       transform="matrix(0.99994927,-0.01007295,0.36239784,0.9320235,0,0)" />
    <rect
       style="fill:#362d5e;fill-rule:evenodd;stroke-width:0.264583;fill-opacity:1;filter:url(#filter7032)"
       id="rect662-2-6"
       width="11.762377"
       height="11.762377"
       x="-21.377354"
       y="244.99968"
       transform="rotate(-29.46254)" />
    <rect
       style="fill:#362d5e;fill-rule:evenodd;stroke-width:0.278994;fill-opacity:1;filter:url(#filter7036)"
       id="rect662-2-1"
       width="11.762377"
       height="13.078621"
       x="142.62645"
       y="221.31477"
       transform="matrix(1,0,-0.43721073,0.89935909,0,0)" />
    <rect
       style="fill:#362d5e;fill-rule:evenodd;stroke-width:0.264583;fill-opacity:1;filter:url(#filter7040)"
       id="rect662-2-3"
       width="11.762377"
       height="11.762377"
       x="136.66974"
       y="-83.965057"
       transform="rotate(111.73689)" />
    <rect
       style="fill:#362d5e;fill-rule:evenodd;stroke-width:0.264583;fill-opacity:1;filter:url(#filter7044)"
       id="rect662-2-54"
       width="11.762377"
       height="11.762377"
       x="137.8295"
       y="31.478867"
       transform="rotate(47.337364)" />
    <rect
       style="fill:#362d5e;fill-rule:evenodd;stroke-width:0.264583;fill-opacity:1;filter:url(#filter7048)"
       id="rect662-2-43"
       width="11.762377"
       height="11.762377"
       x="94.185791"
       y="269.88782" />
    <rect
       style="fill:#362d5e;fill-rule:evenodd;stroke-width:0.289809;fill-opacity:1;filter:url(#filter7052)"
       id="rect662-2-69"
       width="14.112171"
       height="11.762377"
       x="67.785004"
       y="281.08987"
       transform="matrix(0.83349163,-0.55253208,0,1,0,0)" />
    <rect
       style="fill:#362d5e;fill-rule:evenodd;stroke-width:0.283465;fill-opacity:1;filter:url(#filter7056)"
       id="rect662-2-7"
       width="13.192472"
       height="12.03762"
       x="51.682861"
       y="-113.86301"
       transform="matrix(0.89159758,-0.45282861,0.04318367,-0.99906715,0,0)" />
    <rect
       style="fill:#362d5e;fill-rule:evenodd;stroke-width:0.264583;fill-opacity:1;filter:url(#filter7060)"
       id="rect662-2-74"
       width="11.762377"
       height="11.762377"
       x="88.03067"
       y="-39.598843"
       transform="rotate(54.350678)" />
    <rect
       style="fill:#362d5e;fill-rule:evenodd;stroke-width:0.264583;fill-opacity:1;filter:url(#filter7064)"
       id="rect662-2-56"
       width="11.762377"
       height="11.762377"
       x="62.99609"
       y="25.82835" />
    <rect
       style="fill:#362d5e;fill-rule:evenodd;stroke-width:0.264583;fill-opacity:1;filter:url(#filter7068)"
       id="rect662-2-06"
       width="11.762377"
       height="11.762377"
       x="16.211523"
       y="55.978401" />
    <rect
       style="fill:#362d5e;fill-rule:evenodd;stroke-width:0.278994;fill-opacity:1;filter:url(#filter7072)"
       id="rect662-2-071"
       width="13.078621"
       height="11.762377"
       x="153.56638"
       y="-96.674248"
       transform="matrix(0.89935909,-0.43721073,0,-1,0,0)" />
    <rect
       style="fill:#362d5e;fill-rule:evenodd;stroke-width:0.264583;fill-opacity:1;filter:url(#filter7076)"
       id="rect662-2-8"
       width="11.762377"
       height="11.762377"
       x="13.872295"
       y="190.8739" />
    <path
       sodipodi:type="spiral"
       style="fill:none;fill-rule:evenodd;stroke:#402d34;filter:url(#filter7080);stroke-width:2.51338586;stroke-miterlimit:4;stroke-dasharray:none;stroke-opacity:1"
       id="path6712"
       sodipodi:cx="79.187653"
       sodipodi:cy="473.73666"
       sodipodi:expansion="1"
       sodipodi:revolution="3"
       sodipodi:radius="60.890045"
       sodipodi:argument="-18.242569"
       sodipodi:t0="0"
       d="m 79.187653,473.73666 c 2.507586,1.74138 -1.110187,4.23931 -2.894283,4.16778 -4.83479,-0.19386 -6.655834,-6.01346 -5.441264,-9.95634 2.172581,-7.05289 10.699004,-9.37079 17.018394,-6.71476 9.27396,3.89784 12.15169,15.44287 7.988246,24.08045 -5.549212,11.51255 -20.206732,14.95981 -31.142506,9.26174 -13.761556,-7.17044 -17.781833,-24.97997 -10.535227,-38.20456 8.776612,-16.01675 29.758457,-20.61188 45.266618,-11.80872 18.275829,10.37422 23.446949,34.54021 13.082209,52.32867 -11.96651,20.5375 -39.324133,26.28539 -59.390731,14.3557 -22.800943,-13.55527 -29.126164,-44.10959 -15.629189,-66.45278 15.141567,-25.06569 48.896168,-31.96865 73.51484,-16.90268 27.33139,16.72608 34.81242,53.68359 18.17617,80.57689"
       transform="scale(0.26458333)" />
    <path
       sodipodi:type="spiral"
       style="fill:none;fill-rule:evenodd;stroke:#362d5e;filter:url(#filter7084);stroke-width:2.1354331;stroke-miterlimit:4;stroke-dasharray:none;stroke-opacity:1"
       id="path6714"
       sodipodi:cx="332.03244"
       sodipodi:cy="522.36066"
       sodipodi:expansion="1"
       sodipodi:revolution="3"
       sodipodi:radius="69.864578"
       sodipodi:argument="-17.581644"
       sodipodi:t0="0"
       d="m 332.03244,522.36066 c 1.04483,3.34344 -3.99142,3.05794 -5.55703,1.73657 -4.2427,-3.58085 -1.79329,-10.13471 2.08389,-12.85063 6.93538,-4.85815 16.29097,-0.95231 20.14423,5.90435 5.65481,10.06242 0.12998,22.54649 -9.72481,27.43782 -13.13489,6.51938 -28.83932,-0.68178 -34.73143,-13.54527 -7.41461,-16.18738 1.48756,-35.15042 17.36574,-42.02502 19.2306,-8.32605 41.47193,2.28975 49.31861,21.18619 9.24705,22.2688 -3.08969,47.79994 -25.00665,56.61222 -25.30399,10.17412 -54.13228,-3.88813 -63.90581,-28.82711 -11.10531,-28.33726 4.68552,-60.46766 32.64757,-71.19941 31.3692,-12.03941 66.80526,5.48214 78.49301,36.46803 12.97562,34.4002 -6.27822,73.14452 -40.28849,85.78661"
       transform="scale(0.26458333)" />
    <path
       sodipodi:type="spiral"
       style="fill:none;fill-rule:evenodd;stroke:#000000;filter:url(#filter7088)"
       id="path6716"
       sodipodi:cx="401.49527"
       sodipodi:cy="971.0907"
       sodipodi:expansion="1"
       sodipodi:revolution="3"
       sodipodi:radius="48.969276"
       sodipodi:argument="-17.257086"
       sodipodi:t0="0"
       d="m 401.49527,971.0907 c -0.0532,2.45466 -3.33509,1.13932 -4.07981,-0.0884 -2.01816,-3.32715 1.07393,-7.13355 4.25669,-8.07119 5.6932,-1.67722 11.03532,3.00864 12.06256,8.42494 1.50752,7.94865 -4.95314,15.00722 -12.5932,16.05395 -10.18299,1.39512 -19.00624,-6.89896 -20.04531,-16.76146 -1.30757,-12.41094 8.84488,-23.01876 20.9297,-24.03669 14.63634,-1.23285 27.03898,10.79076 28.02807,25.09796 1.16561,16.86054 -12.73658,31.06403 -29.26621,32.01943 -19.08411,1.1031 -35.09228,-14.68237 -36.01082,-33.43445 -1.0437,-21.30731 16.62816,-39.1228 37.60272,-40.0022 23.53028,-0.98655 43.15495,18.57394 43.99357,41.77098 0.93103,25.75311 -20.5197,47.18837 -45.93923,47.98497"
       transform="scale(0.26458333)" />
    <path
       sodipodi:type="spiral"
       style="fill:none;fill-rule:evenodd;stroke:#361a48;filter:url(#filter7092);stroke-opacity:1;stroke-width:2.51338586;stroke-miterlimit:4;stroke-dasharray:none"
       id="path6718"
       sodipodi:cx="247.28775"
       sodipodi:cy="748.80957"
       sodipodi:expansion="1"
       sodipodi:revolution="3"
       sodipodi:radius="71.51638"
       sodipodi:argument="-17.415163"
       sodipodi:t0="0"
       d="m 247.28775,748.80957 c 0.48759,3.55241 -4.54802,2.40989 -5.90434,0.81041 -3.67555,-4.33452 -0.0911,-10.53509 4.28353,-12.61909 7.82528,-3.7278 16.60711,1.8021 19.33383,9.37747 4.00158,11.11714 -3.69337,22.7825 -14.4714,26.04858 -14.36543,4.35316 -28.99735,-5.5803 -32.76333,-19.56535 -4.73909,-17.59875 7.46427,-35.23167 24.65928,-39.47807 20.82546,-5.14296 41.47709,9.34641 46.19282,29.75322 5.55732,24.04871 -11.22736,47.72945 -34.84715,52.90756 -27.26998,5.97834 -53.98645,-13.10754 -59.62231,-39.94109 -6.40383,-30.48998 14.98717,-60.24669 45.03502,-66.33705 33.70915,-6.83247 66.50931,16.86641 73.05181,50.12896 7.26341,36.92772 -18.74538,72.77369 -55.2229,79.76655"
       transform="scale(0.26458333)" />
    <path
       sodipodi:type="spiral"
       style="fill:none;fill-rule:evenodd;stroke:#44163b;filter:url(#filter7096);stroke-opacity:1;stroke-width:2.1354331;stroke-miterlimit:4;stroke-dasharray:none"
       id="path6720"
       sodipodi:cx="529.30695"
       sodipodi:cy="458.45483"
       sodipodi:expansion="1"
       sodipodi:revolution="3"
       sodipodi:radius="67.66124"
       sodipodi:argument="-17.613497"
       sodipodi:t0="0"
       d="m 529.30695,458.45483 c 1.11448,3.20414 -3.76927,3.08311 -5.32549,1.85235 -4.21726,-3.3353 -2.04844,-9.7548 1.6208,-12.50332 6.5634,-4.91645 15.73982,-1.42427 19.68114,5.09394 5.78405,9.56573 0.82122,21.82035 -8.56708,26.85897 -12.51312,6.71569 -27.93666,0.22955 -34.0368,-12.04021 -7.6764,-15.44024 0.35577,-34.07049 15.51336,-41.21463 18.35787,-8.65252 40.21427,0.93729 48.39246,18.98649 9.63771,21.27036 -1.51644,46.36427 -22.45964,55.57029 -24.17974,10.62871 -52.51842,-2.094 -62.74812,-25.93277 -11.62363,-27.08714 2.67045,-58.67549 29.40592,-69.92595 29.99316,-12.62132 64.83467,3.24609 77.10378,32.87905 13.62103,32.89821 -3.82114,70.99546 -36.3522,84.28161"
       transform="scale(0.26458333)" />
    <path
       sodipodi:type="spiral"
       style="mix-blend-mode:normal;fill:none;fill-rule:evenodd;stroke:#362d5e;filter:url(#filter7100);stroke-opacity:1;stroke-width:3.64724413;stroke-miterlimit:4;stroke-dasharray:none"
       id="path6722"
       sodipodi:cx="373.71014"
       sodipodi:cy="208.38855"
       sodipodi:expansion="1"
       sodipodi:revolution="3"
       sodipodi:radius="83.355423"
       sodipodi:argument="-17.92226"
       sodipodi:t0="0"
       d="m 373.71014,208.38855 c 2.50759,3.34345 -3.26974,5.02971 -5.55703,4.16777 -6.19839,-2.33581 -6.05611,-10.68227 -2.7785,-15.28183 5.86286,-8.22753 17.94052,-7.56412 25.00662,-1.38925 10.3698,9.06188 9.13268,25.30297 -1e-5,34.73143 -12.17244,12.56665 -32.70315,10.72797 -44.45623,-1.38928 -14.79005,-15.24831 -12.33729,-40.12149 2.77854,-54.18102 18.3073,-17.02797 47.55012,-13.95479 63.90582,4.1678 19.27464,21.35684 15.57741,54.98514 -5.55706,73.63062 -24.40057,21.52694 -62.42445,17.20344 -83.35542,-6.94632 -23.78309,-27.44049 -18.83186,-69.86676 8.33559,-93.08022 30.47777,-26.04199 77.31125,-20.46203 102.80501,9.72484 28.30291,33.51315 22.09349,84.7574 -11.1141,112.52982"
       transform="matrix(0.18658092,-0.18759504,0.18759492,0.18658104,-24.269961,80.756316)" />
    <path
       sodipodi:type="spiral"
       style="mix-blend-mode:normal;fill:none;fill-rule:evenodd;stroke:#362d5e;filter:url(#filter7104);stroke-width:2.51338586;stroke-miterlimit:4;stroke-dasharray:none;stroke-opacity:1"
       id="path6724"
       sodipodi:cx="576.54169"
       sodipodi:cy="771.03766"
       sodipodi:expansion="1"
       sodipodi:revolution="3"
       sodipodi:radius="87.036705"
       sodipodi:argument="-17.778107"
       sodipodi:t0="0"
       d="m 576.54169,771.03766 c 2.08965,3.83103 -4.1332,4.70691 -6.36743,3.47314 -6.05464,-3.34342 -4.65565,-11.94675 -0.57886,-16.208 7.29242,-7.62235 19.67315,-5.12519 26.04857,2.31542 9.35618,10.9194 5.64167,27.5163 -5.2097,35.88915 -14.46318,11.15968 -35.40245,6.18012 -45.72972,-8.10399 -12.99581,-17.97509 -6.73035,-43.30947 10.99827,-55.57028 21.47173,-14.84949 51.22833,-7.28747 65.41086,13.89254 16.71361,24.95992 7.84892,59.15459 -16.78683,75.25143 -28.44295,18.58445 -67.08578,8.41328 -85.092,-19.68111 -20.45983,-31.92262 -8.97964,-75.02042 22.57539,-94.93257 35.39997,-22.33842 82.95759,-9.54747 104.77314,25.46967 24.2194,38.87567 10.1164,90.89666 -28.36395,114.61372"
       transform="matrix(0.26458333,0.08988732,0,0.26458333,0,-52.472712)" />
    <path
       sodipodi:type="spiral"
       style="fill:none;fill-rule:evenodd;stroke:none;filter:url(#filter7108);stroke-opacity:1;stroke-width:1.75748033;stroke-miterlimit:4;stroke-dasharray:none"
       id="path6726"
       sodipodi:cx="43.066967"
       sodipodi:cy="100.0265"
       sodipodi:expansion="1"
       sodipodi:revolution="3"
       sodipodi:radius="147.56238"
       sodipodi:argument="-18.010876"
       sodipodi:t0="0"
       d="m 43.066967,100.0265 c 4.945519,5.50275 -4.977655,9.38132 -9.145935,8.21977 C 22.625249,105.09856 21.568508,90.358679 26.627411,81.734626 35.676602,66.308218 57.077466,65.585841 70.504773,75.367163 90.209887,89.721646 90.572902,118.55392 75.946079,136.61024 56.450824,160.67648 19.960276,160.65079 -2.6627103,141.12539 -31.13143,116.55466 -30.703265,72.310694 -6.2517006,45.150884 23.36242,12.256715 75.408713,13.094328 107.08852,42.488051 144.42207,77.127537 143.17112,137.00468 108.82519,173.19398 69.171456,214.97596 1.4453341,213.30934 -39.246452,174.0045 -85.483046,129.34384 -83.399245,53.756498 -39.130812,8.5671423 10.531679,-42.128485 93.988922,-39.62649 143.67226,9.6089397 198.83018,64.269599 195.90927,155.60311 141.7043,209.77772"
       transform="scale(0.26458333)" />
    <path
       sodipodi:type="spiral"
       style="mix-blend-mode:normal;fill:none;fill-rule:evenodd;stroke:#362d5e;filter:url(#filter7112);stroke-opacity:1;stroke-width:3.26929138;stroke-miterlimit:4;stroke-dasharray:none"
       id="path6728"
       sodipodi:cx="607.10535"
       sodipodi:cy="188.93895"
       sodipodi:expansion="1"
       sodipodi:revolution="3"
       sodipodi:radius="184.72418"
       sodipodi:argument="-18.042885"
       sodipodi:t0="0"
       d="m 607.10535,188.93895 c 6.40827,6.68689 -5.85218,11.9373 -11.11406,10.65098 -14.25935,-3.48587 -16.17207,-21.88602 -10.1879,-32.87908 10.70429,-19.66402 37.45204,-21.42524 54.64411,-9.72483 25.23006,17.17083 26.83939,53.23113 9.26175,76.40914 -23.42822,30.89264 -69.0861,32.32243 -98.17416,8.79867 -36.60436,-29.60226 -37.8412,-84.97731 -8.3356,-119.93919 35.73524,-42.343519 100.88894,-43.380651 141.70422,-7.87252 48.09939,41.8451 48.93309,116.8133 7.40945,163.46924 -47.9407,53.86614 -132.74617,54.49421 -185.23428,6.94637 -59.64033,-54.02686 -60.06137,-148.68498 -6.48329,-206.999299 60.1065,-65.419849 164.62816,-65.632942 228.76433,-6.020218 71.20329,66.181417 71.2078,180.574627 5.55714,250.529357"
       transform="matrix(0.26458333,0,-0.07869512,0.26458333,13.772448,0)" />
    <path
       sodipodi:type="spiral"
       style="mix-blend-mode:normal;fill:none;fill-rule:evenodd;stroke:#362d5e;filter:url(#filter7116);stroke-width:3.26929138;stroke-miterlimit:4;stroke-dasharray:none;stroke-opacity:1"
       id="path6732"
       sodipodi:cx="95.858734"
       sodipodi:cy="1025.2717"
       sodipodi:expansion="1"
       sodipodi:revolution="3"
       sodipodi:radius="233.70094"
       sodipodi:argument="-17.937717"
       sodipodi:t0="0"
       d="m 95.858734,1025.2717 c 7.174476,9.2642 -8.948229,14.2417 -15.397596,11.9245 -17.477387,-6.2795 -17.44022,-29.6835 -8.451321,-42.71966 16.07903,-23.31859 49.965473,-21.98221 70.041703,-4.97819 29.46269,24.95405 26.69843,70.53685 1.50505,97.36375 -33.57882,35.756 -91.212922,31.4913 -124.685817,-1.9681 -42.122223,-42.1052 -36.324225,-111.93926 5.441229,-152.00785 50.583562,-48.52842 132.694088,-41.1805 179.329928,8.91437 54.95872,59.03508 46.05143,153.46668 -12.38751,206.65198 -67.47006,61.4046 -174.251019,50.9321 -233.974033,-15.8606 -67.861087,-75.8942 -55.81967,-195.04377 19.333781,-261.29613 84.310813,-74.32515 215.842492,-60.71217 288.618142,22.80691 80.79478,92.72202 65.60837,236.64582 -26.28005,315.94022"
       transform="matrix(0.26458333,0,-0.05313917,0.26458333,54.006486,0)" />
  </g>
</svg>
